Coordinates
version=1
nRows=21
nColumns=22
inDegrees=yes

Units are S.I. units (second, meters, Newtons, ...)
If the header above contains a line with 'inDegrees', this indicates whether rotational values are in degrees (yes) or radians (no).

endheader
time	pelvis_tilt	pelvis_list	pelvis_rotation	pelvis_tx	pelvis_ty	pelvis_tz	hip_flexion_r	hip_adduction_r	hip_rotation_r	knee_angle_r	ankle_angle_r	subtalar_angle_r	hip_flexion_l	hip_adduction_l	hip_rotation_l	knee_angle_l	ankle_angle_l	subtalar_angle_l	lumbar_extension	lumbar_bending	lumbar_rotation
      0.01000000	      0.16870910	     -1.48888878	     -4.00798847	     -1.16295506	      0.93432306	      0.75010907	     -3.44323124	     -3.00868140	     -1.93625887	     -5.07276031	      3.99079995	      6.96630517	     -3.51012269	     -5.70049737	     -7.55406459	     -5.20736803	      6.57144488	      5.33989757	     -5.62700953	     -2.19060083	      1.15201444
      0.02000000	      0.17691050	     -1.49504455	     -4.04466715	     -1.16299656	      0.93434110	      0.75024576	     -3.44603426	     -2.99818570	     -1.94160597	     -5.06961112	      3.99254821	      6.96678706	     -3.51887702	     -5.71158272	     -7.54925285	     -5.22094222	      6.57197480	      5.33953616	     -5.60555048	     -2.20485399	      1.14131335
      0.03000000	      0.15327749	     -1.55201193	     -4.12173772	     -1.16304929	      0.93431295	      0.75046665	     -3.41404949	     -2.92815919	     -1.88886303	     -5.06379558	      3.99807678	      6.95973807	     -3.48869482	     -5.78367161	     -7.63401100	     -5.26788998	      6.63925154	      5.35240220	     -5.54294530	     -2.15931713	      1.16710344
      0.04000000	      0.14921547	     -1.57288589	     -4.18108291	     -1.16306051	      0.93432049	      0.75065402	     -3.40464103	     -2.89798804	     -1.89389550	     -5.06196717	      3.99068411	      6.95489194	     -3.49288808	     -5.81165490	     -7.67652622	     -5.27919951	      6.66215180	      5.36312522	     -5.49070307	     -2.15854777	      1.15322128
      0.05000000	      0.14866920	     -1.62440610	     -4.25729048	     -1.16310722	      0.93434288	      0.75087994	     -3.38547567	     -2.83330251	     -1.88551212	     -5.08394971	      3.97035475	      6.94748518	     -3.49046346	     -5.87597643	     -7.74261366	     -5.32001310	      6.69607237	      5.38208417	     -5.45117019	     -2.12686611	      1.17359646
      0.06000000	      0.15128477	     -1.66486261	     -4.32921429	     -1.16311337	      0.93437121	      0.75109426	     -3.37847242	     -2.78010727	     -1.88641650	     -5.09483515	      3.94175667	      6.94065513	     -3.50175606	     -5.92580236	     -7.80483630	     -5.34157008	      6.72959034	      5.40200200	     -5.40928619	     -2.10990681	      1.17507401
      0.07000000	      0.16250785	     -1.71847263	     -4.40525701	     -1.16311792	      0.93441769	      0.75132465	     -3.37443028	     -2.71145624	     -1.89762397	     -5.11998240	      3.90208197	      6.93274547	     -3.52260555	     -5.99010388	     -7.87313500	     -5.36769165	      6.75184017	      5.42230500	     -5.38298980	     -2.08180225	      1.19753749
      0.08000000	      0.17488718	     -1.77315187	     -4.48361372	     -1.16308648	      0.93446359	      0.75156324	     -3.37762156	     -2.64256815	     -1.90660152	     -5.13936740	      3.85659232	      6.92425242	     -3.55529319	     -6.05530798	     -7.95311300	     -5.37856273	      6.77950417	      5.44466989	     -5.35776460	     -2.05534413	      1.21429518
      0.09000000	      0.19201947	     -1.83138047	     -4.56562268	     -1.16304443	      0.93451517	      0.75181103	     -3.38415631	     -2.57005028	     -1.91446969	     -5.16297075	      3.80678685	      6.91743447	     -3.59560821	     -6.12329442	     -8.03643855	     -5.38903771	      6.80104381	      5.46687248	     -5.34205916	     -2.02768477	      1.24537415
      0.10000000	      0.20956995	     -1.88721899	     -4.64996541	     -1.16299318	      0.93456325	      0.75206117	     -3.39289924	     -2.50216456	     -1.90746535	     -5.18143215	      3.75902445	      6.91477469	     -3.64152218	     -6.18747338	     -8.12693998	     -5.39130284	      6.82492747	      5.48917882	     -5.32980120	     -2.00443050	      1.27235322
      0.11000000	      0.23537613	     -1.94465827	     -4.74659270	     -1.16296159	      0.93461400	      0.75234332	     -3.41578486	     -2.43452311	     -1.85084023	     -5.18342827	      3.70758568	      6.92123056	     -3.69082295	     -6.25492890	     -8.22859615	     -5.41030642	      6.85691512	      5.52540772	     -5.33671270	     -1.98605048	      1.33207448
      0.12000000	      0.24508368	     -1.97146146	     -4.80953628	     -1.16288669	      0.93463015	      0.75255470	     -3.41647267	     -2.40139555	     -1.84358269	     -5.20508500	      3.68756036	      6.92917400	     -3.73078593	     -6.28734761	     -8.29006628	     -5.39588457	      6.86858540	      5.53253392	     -5.31509189	     -1.99643356	      1.31372544
      0.13000000	      0.26923676	     -2.01637016	     -4.91556380	     -1.16284858	      0.93466150	      0.75282841	     -3.42699499	     -2.35271877	     -1.76124990	     -5.22080714	      3.66329611	      6.96719514	     -3.78401559	     -6.33869825	     -8.41791262	     -5.40679992	      6.89854466	      5.54572745	     -5.32117127	     -1.99249947	      1.38005757
      0.14000000	      0.28369416	     -2.02970669	     -4.99715235	     -1.16280045	      0.93466768	      0.75304947	     -3.42892264	     -2.33884973	     -1.68389714	     -5.23538693	      3.66696932	      7.01071838	     -3.82705580	     -6.35520604	     -8.51250023	     -5.39987066	      6.92335211	      5.54540130	     -5.31286157	     -2.02114206	      1.38624880
      0.15000000	      0.29350203	     -2.03373292	     -5.07050900	     -1.16275746	      0.93465957	      0.75324500	     -3.42084712	     -2.33534768	     -1.60920312	     -5.25795263	      3.68848772	      7.05012172	     -3.86244596	     -6.36148658	     -8.59714717	     -5.39204206	      6.94421399	      5.53074496	     -5.29949038	     -2.05861067	      1.38201600
      0.16000000	      0.29830567	     -2.02674875	     -5.14109464	     -1.16271364	      0.93463629	      0.75341852	     -3.40665750	     -2.34506746	     -1.52419414	     -5.27934625	      3.72351930	      7.08083804	     -3.89090451	     -6.35539892	     -8.67681792	     -5.38402261	      6.96606402	      5.50760974	     -5.27969914	     -2.10511440	      1.36880557
      0.17000000	      0.29857073	     -2.01325920	     -5.20417304	     -1.16267562	      0.93460048	      0.75356927	     -3.38604011	     -2.36164663	     -1.43489107	     -5.30176051	      3.76652663	      7.09711496	     -3.91217100	     -6.34165669	     -8.74875131	     -5.37438304	      6.98546096	      5.48133780	     -5.25597160	     -2.15614936	      1.34368788
      0.18000000	      0.30067117	     -2.00945954	     -5.23808311	     -1.16263653	      0.93456635	      0.75366617	     -3.37107508	     -2.36744862	     -1.38592604	     -5.32269411	      3.78034751	      7.09711323	     -3.93208443	     -6.33881909	     -8.78144301	     -5.36006584	      6.99985421	      5.47418552	     -5.23767452	     -2.18917609	      1.27538764
      0.19000000	      0.29123976	     -1.97307499	     -5.29604915	     -1.16261354	      0.93450418	      0.75378858	     -3.34303209	     -2.40977471	     -1.25466730	     -5.33394860	      3.86520287	      7.08383973	     -3.93101541	     -6.30019761	     -8.84812679	     -5.36387015	      7.01594588	      5.44623538	     -5.20402055	     -2.26399165	      1.26383353
      0.20000000	      0.29091457	     -1.96790175	     -5.32108305	     -1.16258298	      0.93446430	      0.75384186	     -3.32311955	     -2.41889048	     -1.20285625	     -5.35891984	      3.88144446	      7.07571263	     -3.94425859	     -6.29312898	     -8.87445377	     -5.35103452	      7.02465532	      5.43970379	     -5.18655202	     -2.29040100	      1.18797830
      0.21000000	      0.27244645	     -1.93214210	     -5.35250653	     -1.16257285	      0.93439199	      0.75390324	     -3.28970236	     -2.45999554	     -1.09572248	     -5.36572804	      3.97572962	      7.04381173	     -3.92203552	     -6.25603076	     -8.90255367	     -5.36348780	      7.02972692	      5.42037582	     -5.14716448	     -2.35516032	      1.15059925
